<svg xmlns="http://www.w3.org/2000/svg"><symbol viewBox="0 0 1024 1024" id="iconfont-delete"><title>iconfont-delete</title> <path d="M854.357322 526.048339l-34.659381-663.552671-0.030699-0.378623c-2.548032-28.499078-26.759457-50.837852-55.115272-50.837852l-474.844775 0c-28.355815 0-52.577472 22.338774-55.125505 50.837852l-0.051165 0.757247-34.618449 663.174048c-0.583285 11.2973 8.084119 20.916379 19.371186 21.509896 11.2973 0.593518 20.916379-8.084119 21.509896-19.371186l34.58775-662.703327c0.798179-7.101745 7.41897-13.272281 14.326287-13.272281l474.844775 0c6.897084 0 13.517875 6.170536 14.316054 13.262048l34.608216 662.71356c0.593518 11.287067 10.212596 19.954471 21.509896 19.371186C846.273203 546.964718 854.940606 537.335407 854.357322 526.048339zM936.191118 670.283348c0-11.307533-9.15859-20.466124-20.466124-20.466124l-265.875416 0c-11.307533 0-20.466124 9.15859-20.466124 20.466124l0 61.35744c0 11.266601-9.168824 20.435425-20.435425 20.435425l-163.616428 0c-11.276834 0-20.445658-9.168824-20.445658-20.435425l0-61.35744c0-11.307533-9.15859-20.466124-20.466124-20.466124l-265.875416 0c-11.2973 0-20.466124 9.15859-20.466124 20.466124 0 11.307533 9.168824 20.466124 20.466124 20.466124l245.409292 0 0 40.891316c0 33.840736 27.53717 61.367673 61.377906 61.367673l163.616428 0c33.830503 0 61.367673-27.526937 61.367673-61.367673l0-40.891316 245.409292 0C927.032528 690.749472 936.191118 681.590881 936.191118 670.283348zM639.636982 506.66692l0-572.662615c0-11.2973-9.168824-20.466124-20.466124-20.466124-11.307533 0-20.466124 9.168824-20.466124 20.466124l0 572.662615c0 11.307533 9.15859 20.466124 20.466124 20.466124C630.468159 527.133044 639.636982 517.974453 639.636982 506.66692zM455.564663 506.66692l0-572.662615c0-11.2973-9.15859-20.466124-20.466124-20.466124-11.2973 0-20.466124 9.168824-20.466124 20.466124l0 572.662615c0 11.307533 9.168824 20.466124 20.466124 20.466124C446.406073 527.133044 455.564663 517.974453 455.564663 506.66692z" transform="translate(0, 812) scale(1, -1)"/> </symbol><symbol viewBox="0 0 1024 1024" id="iconfont-delete2"><title>iconfont-delete2</title> <path d="M888.638079 479.651636l-34.649148-622.61019-0.030699-0.347924c-2.558265-28.499078-26.759457-50.827619-55.115272-50.827619l-474.844775 0c-28.366048 0-52.577472 22.328541-55.125505 50.827619l-0.051165 0.695848-34.618449 622.262266c-0.624217 11.287067 8.012488 20.947078 19.299555 21.571295 11.307533 0.63445 20.947078-8.012488 21.571295-19.289322l34.58775-621.852944c0.787946-7.101745 7.41897-13.282514 14.33652-13.282514l474.844775 0c6.907317 0 13.538341 6.180769 14.316054 13.282514l34.608216 621.852944c0.63445 11.287067 10.304693 19.913539 21.571295 19.289322C880.625592 500.598714 889.262296 490.938704 888.638079 479.651636zM858.972433 741.986413l-227.931223-78.119195c-10.69355-3.663436-22.338774 2.036379-26.002211 12.729929l-19.893072 58.041928c-1.893116 5.51562-5.505387 9.977235-10.171664 12.555967-2.322905 1.279133-6.989181 3.162016-12.156878 1.391696l-140.274814-48.074925c-5.167696-1.77032-7.695263-6.119371-8.739035-8.55484-2.108011-4.901637-2.230808-10.642384-0.337691-16.168238l19.893072-58.041928c3.663436-10.69355-2.026146-22.328541-12.719696-25.991977l-227.941456-78.119195c-2.189875-0.757247-4.430916-1.115404-6.631024-1.115404-8.503675 0-16.454764 5.341658-19.360953 13.8351-3.663436 10.69355 2.036379 22.328541 12.719696 26.002211l208.580502 71.477938-13.262048 38.691207c-5.188162 15.144932-4.676509 31.343869 1.453095 45.598524 6.426363 14.950504 18.173918 26.002211 33.083489 31.108508l140.264581 48.074925c14.899338 5.106298 30.955013 3.581572 45.209668-4.27742 13.579273-7.500834 23.924899-19.974937 29.113061-35.130102l13.262048-38.680974 208.570269 71.488171c10.69355 3.673669 22.328541-2.026146 25.991977-12.719696C875.365798 757.295074 869.665982 745.649849 858.972433 741.986413zM673.927973 358.08286l0-429.491845c0-11.307533-9.168824-20.466124-20.466124-20.466124-11.307533 0-20.466124 9.15859-20.466124 20.466124l0 429.491845c0 11.2973 9.15859 20.466124 20.466124 20.466124C664.759149 378.548984 673.927973 369.38016 673.927973 358.08286zM489.855654 358.08286l0-429.491845c0-11.307533-9.15859-20.466124-20.466124-20.466124s-20.466124 9.15859-20.466124 20.466124l0 429.491845c0 11.2973 9.15859 20.466124 20.466124 20.466124S489.855654 369.38016 489.855654 358.08286z" transform="translate(0, 812) scale(1, -1)"/> </symbol><symbol viewBox="0 0 1024 1024" id="iconfont-download"><title>iconfont-download</title> <path d="M1022.955204 289.429247c0-100.19191-81.516572-181.698249-181.718715-181.698249l-185.637977 0c-11.2973 0-20.466124 9.168824-20.466124 20.466124 0 11.307533 9.168824 20.466124 20.466124 20.466124l185.637977 0c77.628008 0 140.786467 63.148226 140.786467 140.766001 0 77.423347-62.841234 140.448776-140.203182 140.766001-0.419556-0.030699-0.818645-0.051165-1.217734-0.061398-5.945409-0.143263-11.686157 2.292206-15.687284 6.702656-4.001127 4.400217-5.894244 10.335393-5.167696 16.250102 1.330298 10.806113 1.944282 19.760043 1.944282 28.192086 0 60.763922-23.658839 117.884874-66.617234 160.833035-42.968627 42.968627-100.089579 66.617234-160.843268 66.617234-47.368844 0-92.742241-14.449084-131.208321-41.781592-37.616736-26.738991-65.952084-63.700811-81.925894-106.884332-2.425236-6.538927-8.012488-11.399631-14.827707-12.893658-6.815219-1.483794-13.927197 0.603751-18.859533 5.54632-19.289322 19.330254-44.943608 29.972639-72.245418 29.972639-56.322773 0-102.146425-45.813419-102.146425-102.125959 0-0.317225 0.040932-0.982374 0.092098-1.627057 0.061398-0.920976 0.122797-1.831718 0.153496-2.762927 0.337691-9.465582-5.863545-17.928325-15.001669-20.455891-32.356942-8.933463-61.541635-28.550243-82.181721-55.217602-21.305235-27.516704-32.571836-60.508096-32.571836-95.41307 0-86.244246 70.188572-156.422585 156.443052-156.422585l169.981393 0c11.2973 0 20.466124-9.15859 20.466124-20.466124 0-11.2973-9.168824-20.466124-20.466124-20.466124l-169.981393 0c-108.828614 0-197.3753 88.536452-197.3753 197.354833 0 44.053332 14.223956 85.712127 41.126676 120.473839 22.809495 29.460985 53.897537 52.086285 88.710414 64.816215 5.065366 74.322729 67.149353 133.2447 142.751215 133.2447 28.386514 0 55.504128-8.217149 78.651314-23.52581 19.657712 39.868009 48.842405 74.169233 85.497233 100.212376 45.434795 32.295544 99.004875 49.354058 154.918325 49.354058 71.692832 0 139.087778-27.915793 189.782368-78.600149 50.694589-50.694589 78.610382-118.089535 78.610382-189.782368 0-3.704368-0.102331-7.470135-0.296759-11.368932C952.633602 459.431106 1022.955204 382.488713 1022.955204 289.429247zM629.258611-8.711014l-102.023628-102.013395c-3.990894-4.001127-9.230222-5.996574-14.46955-5.996574s-10.478655 1.995447-14.46955 5.996574l-102.023628 102.013395c-7.992021 7.992021-7.992021 20.947078 0 28.939099s20.947078 8.002254 28.939099 0l67.087954-67.077721 0 358.699522c0 11.2973 9.15859 20.466124 20.466124 20.466124 11.307533 0 20.466124-9.168824 20.466124-20.466124l0-358.699522 67.087954 67.077721c7.992021 8.002254 20.947078 7.992021 28.939099 0S637.250632-0.718993 629.258611-8.711014z" transform="translate(0, 812) scale(1, -1)"/> </symbol><symbol viewBox="0 0 1024 1024" id="iconfont-favorite"><title>iconfont-favorite</title> <path d="M714.785519 682.39827c-84.678588 0-159.198815-42.985-202.785519-108.129696-43.586704 65.144696-118.106932 108.129696-202.785519 108.129696-134.387733 0-243.345284-108.138906-243.345284-241.516636 0-281.763269 324.458673-422.648996 446.130803-523.279904 121.673154 100.630908 446.130803 241.516636 446.130803 523.279904C958.130803 574.259364 849.173253 682.39827 714.785519 682.39827z" transform="translate(0, 812) scale(1, -1)"/> </symbol><symbol viewBox="0 0 1024 1024" id="iconfont-history"><title>iconfont-history</title> <path d="M573.4393 300.005117c0-33.932834-27.496238-61.439304-61.439304-61.439304-9.496282 0-18.48091 2.148943-26.503631 5.996574l-122.868375-122.868375c-3.990894-4.001127-9.230222-5.996574-14.46955-5.996574s-10.478655 1.995447-14.46955 5.996574c-7.992021 7.992021-7.992021 20.947078 0 28.939099l122.868375 122.868375c-3.847631 8.022721-5.996574 17.007349-5.996574 26.503631 0 26.749224 17.099447 49.517787 40.97318 57.94983l0 331.172585c0 11.2973 9.15859 20.466124 20.466124 20.466124s20.466124-9.168824 20.466124-20.466124l0-331.172585C556.339854 349.522903 573.4393 326.754341 573.4393 300.005117zM1023.990786 300.005117c0-91.258447-24.313755-180.859138-70.311369-259.101129-5.730515-9.752108-18.266016-13.006222-28.007891-7.275707-9.752108 5.730515-13.006222 18.266016-7.275707 28.018124 42.303478 71.958892 64.662719 154.386206 64.662719 238.358713 0 63.59848-12.453636 125.293611-37.012985 183.356005-23.720238 56.087413-57.68377 106.464777-100.949156 149.730163-43.265386 43.265386-93.64275 77.239152-149.740396 100.95939-58.062394 24.559349-119.747291 37.002752-183.356005 37.002752s-125.293611-12.443403-183.356005-37.002752c-56.097646-23.720238-106.47501-57.694003-149.740396-100.95939s-77.228919-93.64275-100.949156-149.730163c-24.559349-58.062394-37.012985-119.757524-37.012985-183.356005 0-63.608713 12.453636-125.293611 37.012985-183.356005 23.720238-56.087413 57.68377-106.464777 100.949156-149.740396 43.265386-43.265386 93.64275-77.228919 149.740396-100.949156 58.062394-24.559349 119.747291-37.012985 183.356005-37.012985 117.946272 0 230.79648 43.797505 317.767274 123.308397 8.339946 7.623631 21.284769 7.040347 28.9084-1.299599s7.05058-21.284769-1.289366-28.9084c-94.533027-86.428442-217.196741-134.032646-345.386308-134.032646-69.114101 0-136.171356 13.538341-199.299115 40.246633-60.978816 25.787316-115.725698 62.697971-162.736385 109.708658s-83.921341 101.767801-109.708658 162.736385c-26.708292 63.127759-40.246633 130.185015-40.246633 199.299115s13.538341 136.161123 40.246633 199.299115c25.787316 60.968583 62.697971 115.715465 109.708658 162.736385 47.010687 47.010687 101.757568 83.921341 162.736385 109.708658 63.127759 26.698059 130.185015 40.2364 199.299115 40.2364s136.171356-13.538341 199.299115-40.2364c60.978816-25.787316 115.725698-62.697971 162.736385-109.708658 47.010687-47.02092 83.921341-101.767801 109.708658-162.736385C1010.442212 436.166239 1023.990786 369.119217 1023.990786 300.005117z" transform="translate(0, 812) scale(1, -1)"/> </symbol><symbol viewBox="0 0 1024 1024" id="iconfont-like"><title>iconfont-like</title> <path d="M998.162542 443.360082c0-50.89925-9.987468-100.631932-29.67588-147.826813-17.304108-41.4746-42.712801-82.34545-75.519997-121.466446-61.336974-73.15616-140.325979-131.402749-209.511711-178.720428-9.332553-6.375198-22.062482-3.990894-28.447912 5.341658-6.385431 9.322319-3.990894 22.062482 5.341658 28.447912 66.883293 45.75202 143.099139 101.870132 201.25363 171.219593 64.345494 76.758198 95.627964 156.248623 95.627964 243.004523 0 124.229372-101.071953 225.291093-225.291093 225.291093-75.622328 0-145.8109-37.708833-187.756221-100.877525l-17.048281-25.674753-17.048281 25.674753c-41.945321 63.168692-112.133893 100.877525-187.756221 100.877525-124.219139 0-225.291093-101.06172-225.291093-225.291093 0-215.712947 197.764156-348.108303 342.173127-444.769806 39.949874-26.749224 74.455759-49.845245 101.020788-71.989591 8.68787-7.234775 9.864672-20.138666 2.619664-28.816303-4.042059-4.860704-9.864672-7.367805-15.728216-7.367805-4.625344 0-9.260921 1.555425-13.088086 4.748141-24.927739 20.762883-58.604746 43.306318-97.592712 69.410859-72.644507 48.627511-163.05361 109.145839-234.17339 185.750541-39.571251 42.620703-69.001537 85.282339-89.979314 130.430608-24.006763 51.697429-36.184107 106.403379-36.184107 162.603355 0 71.109548 27.690666 137.962142 77.986165 188.247408 50.285267 50.285267 117.137861 77.975932 188.237175 77.975932 79.787184 0 154.447605-35.508725 204.804503-96.231715 50.356898 60.72299 125.017318 96.231715 204.804503 96.231715 71.099315 0 137.962142-27.690666 188.237175-77.975932C970.471876 581.322224 998.162542 514.46963 998.162542 443.360082z" transform="translate(0, 812) scale(1, -1)"/> </symbol><symbol viewBox="0 0 1024 1024" id="iconfont-man"><title>iconfont-man</title> <path d="M942.04443 420.414487l-68.810179 0L873.234251 661.236298 632.41244 661.236298l0 68.807109 309.63199 0L942.04443 420.414487zM408.786267-130.043407c-180.214455 0-326.83172 146.620335-326.83172 326.83479 0 180.211385 146.616242 326.830697 326.83172 326.830697 180.217525 0 326.83479-146.620335 326.83479-326.830697C735.621057 16.576929 589.004815-130.043407 408.786267-130.043407zM408.786267 454.812925c-142.28254 0-258.024611-115.748211-258.024611-258.021541 0-142.276401 115.742071-258.027681 258.024611-258.027681 142.28561 0 258.027681 115.751281 258.027681 258.027681C666.813948 339.063691 551.072901 454.812925 408.786267 454.812925zM624.39893 377.995375c-8.803503 0-17.60803 3.360538-24.326035 10.079566-13.43601 13.429871-13.43601 35.219129 0 48.649l283.240923 283.240923c13.440104 13.440104 35.211966 13.440104 48.65207 0 13.437034-13.43294 13.437034-35.219129 0-48.649l-283.243993-283.240923C642.002866 381.355913 633.202433 377.995375 624.39893 377.995375z" transform="translate(0, 812) scale(1, -1)"/> </symbol><symbol viewBox="0 0 1024 1024" id="iconfont-music"><title>iconfont-music</title> <path d="M953.484993 713.466869l0-633.682363-0.010233-4.625344c0.010233-51.656497-14.223956-94.727455-43.521213-131.658575-25.869181-32.592302-69.64622-54.951543-117.096928-59.82248-43.122123-4.420683-83.890642 6.426363-111.847367 29.767977-30.842449 25.736151-47.573505 64.23293-47.113017 108.388593 0.450255 42.600237 16.997116 85.599563 46.611597 121.067356 41.97602 50.275034 103.302761 76.737732 160.055322 69.073168 11.205203-1.514493 19.053961-11.82942 17.539468-23.024389-1.514493-11.205203-11.819187-19.053961-23.024389-17.539468-20.271696 2.742461-42.24208-0.613984-63.526849-9.711176-22.410406-9.578146-43.030026-25.152866-59.628052-45.035706-47.665603-57.090253-49.76338-134.165676-4.686742-171.802878 19.545148-16.311501 49.231261-23.76117 81.44494-20.466124 36.705993 3.765767 70.055542 20.425192 89.201601 44.554752 23.658839 29.80891 34.669614 63.567781 34.659381 106.249883l0.010233 4.615111 0 613.113909-496.262574-1.688455-0.020466-616.715947 0-0.378623c-1.064238-57.489342-12.750395-92.394317-43.132356-128.772852-29.389354-35.211966-69.789483-57.724703-113.771183-63.404052-7.071046-0.910743-14.131859-1.360997-21.110807-1.360997-35.334763-0.010233-68.909439 11.512195-94.451162 32.827663-30.832216 25.756617-47.563272 64.243163-47.102784 108.398826 0.440022 42.600237 16.997116 85.599563 46.601364 121.067356 38.650275 46.294372 93.601818 72.542176 147.049101 70.229504 7.15291-0.317225 14.264888-1.156336 21.131273-2.496867 11.082406-2.179642 18.317181-12.93459 16.137539-24.02723-2.179642-11.092639-12.93459-18.317181-24.02723-16.147772-4.850471 0.961908-9.905604 1.555425-15.011902 1.77032-19.268856 0.849344-39.724747-3.571339-59.167564-12.750395-20.466124-9.670244-39.376823-24.467251-54.685483-42.815131-23.576975-28.233018-36.757159-62.063521-37.105083-95.259574-0.327458-31.630395 11.184737-58.81964 32.41834-76.543304 21.85782-18.24555 52.505841-26.380834 84.074837-22.297842 33.728172 4.359284 64.836681 21.765723 87.605244 49.036833 24.211425 29.010731 32.704866 55.04364 33.615609 103.118566l0.020466 636.916011c0 11.276834 9.117658 20.425192 20.394493 20.466124l537.194822 1.831718 0.071631 0c5.41329 0 10.611685-2.148943 14.449084-5.965875C951.325817 724.119487 953.484993 718.910858 953.484993 713.466869z" transform="translate(0, 812) scale(1, -1)"/> </symbol><symbol viewBox="0 0 1025 1024" id="iconfont-notification"><title>iconfont-notification</title> <path d="M540.172639 779.111962c-7.337105 3.305279-15.932878 2.00568-21.970384-3.325745l-316.65187-280.08914L20.46612 495.697077c-11.307533 0-20.466124-9.15859-20.466124-20.466124l0-327.232856c0-11.2973 9.15859-20.466124 20.466124-20.466124l175.957501 0c11.307533 0 20.466124 9.168824 20.466124 20.466124l0 308.23006c2.169409 0.859577 4.195555 2.097778 5.976108 3.673669l288.439318 255.130701 0-798.066271-196.362226 168.139441c-8.575306 7.357572-21.499663 6.354731-28.847002-2.230808-7.357572-8.585539-6.354731-21.499663 2.230808-28.857235l230.131331-197.068308c3.776-3.243881 8.524141-4.922103 13.313214-4.922103 2.895957 0 5.812379 0.613984 8.55484 1.87265 7.255241 3.346211 11.911284 10.601452 11.911284 18.593474L552.237419 760.45709C552.237419 768.500277 547.509744 775.806683 540.172639 779.111962zM175.957497 168.464221 40.932244 168.464221l0 286.300608 135.025253 0L175.957497 168.464221zM736.299505 316.47523c0-62.974263-42.549072-118.069069-103.46649-133.991714-1.729387-0.460488-3.479241-0.675382-5.188162-0.675382-9.086959 0-17.385972 6.098905-19.790742 15.298428-2.855024 10.92891 3.694135 22.113647 14.623046 24.968671 42.917462 11.225669 72.890101 50.039673 72.890101 94.399997 0 44.350091-29.972639 83.174328-72.890101 94.389764-10.92891 2.865257-17.47807 14.039761-14.623046 24.978904 2.865257 10.939143 14.049994 17.47807 24.978904 14.623046C693.750433 434.544299 736.299505 379.43926 736.299505 316.47523zM879.470275 316.239869c0-108.562555-59.310827-208.201879-154.785296-260.042571-3.100618-1.678222-6.446829-2.476401-9.752108-2.476401-7.255241 0-14.295588 3.868097-17.999956 10.703783-5.392824 9.936303-1.708921 22.35924 8.217149 27.752064 82.273818 44.667316 133.387963 130.522706 133.387963 224.063125 0 93.867878-51.369971 179.89723-134.053112 224.503147-9.956769 5.372358-13.671371 17.785062-8.299013 27.731598 5.362124 9.946536 17.785062 13.661138 27.731598 8.299013C819.862689 525.004567 879.470275 425.181047 879.470275 316.239869zM1024.206704 316.47523c0-78.088496-21.847587-154.13038-63.178925-219.908502-40.205701-63.96687-97.060593-115.746164-164.435073-149.740396-2.947122-1.483794-6.098905-2.189875-9.199523-2.189875-7.480368 0-14.684444 4.113691-18.286482 11.246135-5.096065 10.089799-1.043772 22.400173 9.05626 27.496238 60.712757 30.627555 111.970164 77.30055 148.205437 134.974088 37.227879 59.239196 56.906058 127.749546 56.906058 198.122313s-19.678178 138.883117-56.906058 198.122313c-36.235272 57.663304-87.49268 104.3363-148.205437 134.974088-10.100032 5.085832-14.152325 17.396205-9.05626 27.486004 5.085832 10.100032 17.396205 14.152325 27.486004 9.05626 67.37448-33.983999 124.229372-85.763292 164.435073-149.740396C1002.359117 470.605609 1024.206704 394.563726 1024.206704 316.47523z" transform="translate(0, 812) scale(1, -1)"/> </symbol><symbol viewBox="0 0 1024 1024" id="iconfont-notificationforbid"><title>iconfont-notificationforbid</title> <path d="M960.7607 228.450431c7.981788-7.981788 7.981788-20.936845 0-28.918633-3.990894-4.001127-9.230222-5.996574-14.459317-5.996574-5.239328 0-10.468422 1.995447-14.459317 5.996574l-87.799672 87.789439-87.799672-87.809905c-4.001127-3.990894-9.230222-5.986341-14.46955-5.986341-5.229095 0-10.458189 1.995447-14.459317 5.986341-7.981788 7.992021-7.981788 20.936845 0 28.928866l87.799672 87.799672-87.799672 87.799672c-7.981788 7.981788-7.981788 20.936845 0 28.918633 7.992021 7.992021 20.936845 7.992021 28.928866 0l87.799672-87.789439 87.789439 87.789439c7.992021 7.992021 20.936845 7.992021 28.928866 0 7.981788-7.981788 7.981788-20.936845 0-28.918633l-87.789439-87.799672L960.7607 228.450431zM627.377774 778.907301c-7.255241 3.27458-15.758915 1.985214-21.724791-3.295046l-316.713268-280.140305-181.176362 0c-11.184737 0-20.240997-9.05626-20.240997-20.240997l0-327.232856c0-11.174504 9.05626-20.240997 20.240997-20.240997l175.957501 0c11.184737 0 20.25123 9.066493 20.25123 20.240997l0 308.373323c2.200108 0.859577 4.246721 2.108011 6.04774 3.694135l288.797475 255.458159 0-799.038412-196.710151 168.456666c-8.493441 7.275707-21.274536 6.2831-28.550243-2.210341s-6.2831-21.274536 2.210341-28.54001l230.131331-197.078541c3.745301-3.202948 8.432043-4.870938 13.169951-4.860704 2.865257 0 5.750981 0.603751 8.462742 1.852184 7.173376 3.305279 11.778254 10.478655 11.778254 18.388812L639.309524 760.45709C639.309524 768.418412 634.643248 775.642954 627.377774 778.907301zM263.479857 168.239094l-135.475508 0 0 286.750863 135.475508 0L263.479857 168.239094z" transform="translate(0, 812) scale(1, -1)"/> </symbol><symbol viewBox="0 0 1024 1024" id="iconfont-person2"><title>iconfont-person2</title> <path d="M936.723-111.366c0-11.308-9.169-20.466-20.466-20.466h-778.245c-5.638 0-11.031 2.323-14.899 6.437-3.868 4.103-5.864 9.629-5.526 15.257 3.346 55.688 25.521 99.322 67.804 133.378 35.345 28.479 79.941 46.018 119.287 61.49 48.116 18.921 89.836 35.325 102.372 64.12 1.965 23.301 1.811 41.383 1.627 62.186-0.031 3.121-0.051 6.283-0.072 9.527-18.839 18.798-38.19 58.748-45.199 94.216-6.703 3.428-12.853 8.575-18.051 15.206-10.192 13.006-16.823 31.733-19.699 55.668-2.732 22.758 4.083 40.165 13.323 51.452-25.051 103.947-17.693 183.039 21.909 235.227 33.421 44.033 88.577 67.057 163.954 68.439 0.123 0.010 0.246 0.010 0.379 0.010 49.415 0 86.449-13.323 105.789-37.75 35.058-6.938 61.716-24.774 79.316-53.11 18.993-30.566 26.514-72.358 22.349-124.209-2.968-37.044-11.103-69.789-16.833-89.273 8.964-11.297 15.452-28.468 12.771-50.787-2.875-23.935-9.496-42.662-19.699-55.668-5.188-6.611-11.318-11.748-18-15.186-4.554-23.894-13.61-44.933-19.156-56.333-6.099-12.546-14.807-27.793-25.010-37.975-0.020-3.295-0.051-6.508-0.082-9.67-0.184-20.742-0.338-38.763 1.617-61.971 12.525-28.796 54.082-45.199 101.993-64.12 49.896-19.699 106.444-42.027 144.245-85.988 7.368-8.575 6.396-21.489-2.169-28.867-8.575-7.368-21.5-6.396-28.867 2.18-31.201 36.297-80.534 55.77-128.241 74.599-55.883 22.062-108.655 42.897-126.276 90.266-0.634 1.699-1.034 3.479-1.197 5.29-2.405 26.678-2.221 47.226-2.036 68.971 0.061 6.13 0.113 12.464 0.113 19.085 0 7.491 4.093 14.367 10.653 17.959 7.562 5.464 31.569 45.455 35.724 84.32 1.044 9.773 8.893 17.427 18.686 18.225 2.62 0.215 13.201 7.593 17.069 39.766 1.985 16.526-6.058 22.339-6.14 22.4-8.146 4.953-11.758 14.858-8.749 23.915 15.718 47.287 33.923 140.838 2.466 191.481-12.556 20.21-31.968 31.886-59.342 35.693-6.293 0.87-11.819 4.625-14.961 10.141-9.148 16.056-37.494 25.654-75.847 25.685-62.104-1.177-106.485-18.757-131.914-52.26-16.833-22.196-26.197-52.24-27.803-89.304-1.525-35.018 3.817-76.318 15.871-122.746 2.272-8.729-1.443-17.918-9.138-22.615-0.051-0.031-8.115-5.864-6.13-22.39 3.868-32.173 14.449-39.551 17.069-39.766 9.803-0.798 17.642-8.453 18.686-18.225 4.124-38.671 28.929-78.784 36.767-84.3 6.58-3.582 10.694-10.479 10.694-17.979 0-6.549 0.051-12.812 0.102-18.87 0.184-21.817 0.368-42.426-2.057-69.186-0.153-1.811-0.563-3.592-1.197-5.29-17.621-47.389-70.608-68.224-126.696-90.286-38.405-15.104-78.119-30.72-108.593-55.269-27.558-22.206-43.767-48.709-50.019-82.264h755.21c11.297-0 20.466-9.169 20.466-20.466z" transform="translate(0, 812) scale(1, -1)"/> </symbol><symbol viewBox="0 0 1024 1024" id="iconfont-top"><title>iconfont-top</title> <path d="M764.326842 352.649104c-7.992021-7.992021-20.947078-7.992021-28.949332 0l-187.776687 187.78692 0-603.904153c0-11.2973-9.15859-20.466124-20.466124-20.466124s-20.466124 9.168824-20.466124 20.466124l0 603.904153-187.78692-187.797154c-3.990894-3.990894-9.230222-5.986341-14.46955-5.986341s-10.468422 1.995447-14.46955 5.986341c-7.992021 8.002254-7.992021 20.957311 0 28.949332l222.722594 222.722594c3.837398 3.837398 9.046027 5.996574 14.46955 5.996574 5.433756 0 10.642384-2.159176 14.479783-5.996574l222.712361-222.712361C772.318864 373.606415 772.318864 360.651358 764.326842 352.649104zM842.875826 661.615944c0-11.2973-9.15859-20.466124-20.466124-20.466124l-590.550007 0c-11.307533 0-20.466124 9.168824-20.466124 20.466124 0 11.307533 9.15859 20.466124 20.466124 20.466124l590.550007 0C833.717236 682.082068 842.875826 672.923478 842.875826 661.615944z" transform="translate(0, 812) scale(1, -1)"/> </symbol><symbol viewBox="0 0 1024 1024" id="iconfont-women"><title>iconfont-women</title> <path d="M710.213387 264.368478c109.309568 108.900246 109.299335 286.065248 0.010233 394.945027-109.309568 108.890013-287.139719 108.900246-396.449287 0-109.299335-108.87978-109.289102-286.044782 0.020466-394.945027 47.143717-46.969755 107.058294-73.678046 168.712493-80.114642l0-129.530099-137.419789 0-0.010233-58.799174 137.419789 0 0-136.88767 59.003835-0.020466 0 136.897903 137.419789 0 0.010233 58.809407-137.430022 0 0 129.530099C603.155093 190.690432 663.059438 217.398724 710.213387 264.368478zM355.50476 305.935176c-86.295412 85.967954-86.295412 225.843678 0 311.801399 86.295412 85.978187 226.703255 85.98842 312.998667 0.020466 86.285179-85.967954 86.274946-225.853911-0.020466-311.821865C582.197782 219.967222 441.789938 219.967222 355.50476 305.935176z" transform="translate(0, 812) scale(1, -1)"/> </symbol></svg>